<?xml version="1.0" encoding="UTF-8"?>
<svg xmlns="http://www.w3.org/2000/svg" xmlns:xlink="http://www.w3.org/1999/xlink" width="9.24pt" height="10.9pt" viewBox="0 0 9.24 10.9">
<defs>
<g>
<g id="glyph-0-0">
<path d="M 2.34375 -2.625 L 2.359375 -2.625 C 2.40625 -2.5 2.46875 -2.390625 2.546875 -2.265625 C 2.671875 -2 2.8125 -1.75 2.9375 -1.484375 C 3.078125 -1.21875 3.21875 -0.953125 3.34375 -0.6875 C 3.4375 -0.5 3.515625 -0.328125 3.625 -0.171875 C 3.703125 -0.078125 3.8125 0.046875 3.9375 0.078125 C 4.015625 0.109375 4.140625 0.09375 4.25 0.09375 C 4.3125 0.09375 4.421875 0.109375 4.484375 0.0625 C 4.515625 0.03125 4.515625 -0.015625 4.484375 -0.0625 C 4.46875 -0.09375 4.421875 -0.125 4.375 -0.171875 C 4.328125 -0.21875 4.296875 -0.28125 4.265625 -0.328125 C 4.140625 -0.53125 4.03125 -0.765625 3.9375 -0.96875 C 3.828125 -1.171875 3.71875 -1.390625 3.609375 -1.59375 L 2.140625 -4.46875 C 2 -4.75 1.859375 -5.015625 1.71875 -5.296875 C 1.625 -5.46875 1.53125 -5.671875 1.4375 -5.859375 C 1.234375 -6.203125 0.84375 -6.328125 0.46875 -6.375 C 0.390625 -6.390625 0.296875 -6.390625 0.21875 -6.390625 C 0.1875 -6.390625 0.140625 -6.390625 0.09375 -6.390625 C 0.03125 -6.34375 0.03125 -6.265625 0.078125 -6.21875 C 0.125 -6.1875 0.171875 -6.1875 0.203125 -6.1875 C 0.25 -6.1875 0.3125 -6.171875 0.359375 -6.140625 C 0.53125 -6.0625 0.65625 -5.875 0.765625 -5.71875 C 0.921875 -5.46875 1.046875 -5.203125 1.171875 -4.9375 C 1.375 -4.5625 1.578125 -4.171875 1.765625 -3.765625 C 1.859375 -3.59375 1.953125 -3.421875 2.046875 -3.234375 C 2.078125 -3.171875 2.109375 -3.109375 2.140625 -3.046875 C 2.15625 -3.015625 2.1875 -2.96875 2.1875 -2.9375 C 2.203125 -2.875 2.125 -2.796875 2.09375 -2.75 C 1.984375 -2.59375 1.875 -2.421875 1.75 -2.265625 C 1.4375 -1.796875 1.125 -1.328125 0.8125 -0.859375 C 0.734375 -0.75 0.640625 -0.609375 0.546875 -0.5 C 0.5 -0.421875 0.4375 -0.34375 0.4375 -0.25 C 0.40625 0.0625 0.828125 0.234375 1.015625 -0.015625 C 1.109375 -0.140625 1.171875 -0.3125 1.25 -0.453125 C 1.375 -0.703125 1.515625 -0.96875 1.640625 -1.234375 C 1.78125 -1.5 1.921875 -1.78125 2.046875 -2.046875 C 2.109375 -2.15625 2.171875 -2.265625 2.234375 -2.390625 C 2.265625 -2.46875 2.3125 -2.546875 2.34375 -2.625 Z M 2.34375 -2.625 "/>
</g>
</g>
</defs>
<g fill="rgb(0%, 0%, 0%)" fill-opacity="1">
<use xlink:href="#glyph-0-0" x="1.841088" y="8.598502"/>
</g>
</svg>
