<?xml version="1.0" encoding="UTF-8"?>
<svg xmlns="http://www.w3.org/2000/svg" xmlns:xlink="http://www.w3.org/1999/xlink" width="9.43pt" height="8.27pt" viewBox="0 0 9.43 8.27">
<defs>
<g>
<g id="glyph-0-0">
<path d="M 0.328125 -3.953125 L 0.328125 -3.734375 C 0.46875 -3.734375 0.625 -3.734375 0.765625 -3.703125 C 0.8125 -3.703125 0.890625 -3.703125 0.921875 -3.65625 C 0.9375 -3.640625 0.9375 -3.59375 0.9375 -3.578125 C 0.9375 -3.515625 0.9375 -3.46875 0.9375 -3.40625 L 0.9375 -0.984375 C 0.9375 -0.859375 0.9375 -0.734375 0.921875 -0.625 C 0.828125 -0.34375 0.59375 -0.234375 0.328125 -0.234375 L 0.328125 -0.015625 L 1.21875 -0.03125 L 1.828125 -0.015625 L 1.828125 -0.234375 C 1.609375 -0.234375 1.375 -0.296875 1.265625 -0.515625 C 1.25 -0.578125 1.234375 -0.640625 1.21875 -0.703125 C 1.1875 -0.828125 1.203125 -0.96875 1.203125 -1.09375 L 1.203125 -3.46875 C 1.296875 -3.375 1.375 -3.265625 1.453125 -3.15625 C 1.609375 -2.953125 1.765625 -2.734375 1.921875 -2.53125 C 2.375 -1.9375 2.828125 -1.359375 3.28125 -0.765625 C 3.4375 -0.546875 3.609375 -0.328125 3.765625 -0.125 C 3.828125 -0.046875 3.921875 0.046875 4.03125 -0.03125 C 4.078125 -0.078125 4.0625 -0.1875 4.0625 -0.25 L 4.0625 -2.9375 C 4.0625 -3.0625 4.0625 -3.1875 4.078125 -3.3125 C 4.109375 -3.359375 4.125 -3.421875 4.140625 -3.46875 C 4.25 -3.65625 4.484375 -3.734375 4.6875 -3.734375 L 4.6875 -3.953125 L 4.078125 -3.921875 L 3.1875 -3.953125 L 3.1875 -3.734375 C 3.390625 -3.734375 3.609375 -3.671875 3.71875 -3.484375 C 3.75 -3.4375 3.765625 -3.375 3.78125 -3.328125 C 3.8125 -3.203125 3.8125 -3.078125 3.8125 -2.953125 L 3.8125 -1 L 3.140625 -1.890625 L 2.21875 -3.09375 L 1.765625 -3.6875 L 1.640625 -3.84375 L 1.546875 -3.9375 L 1.40625 -3.953125 Z M 0.328125 -3.953125 "/>
</g>
</g>
</defs>
<g fill="rgb(0%, 0%, 0%)" fill-opacity="1">
<use xlink:href="#glyph-0-0" x="1.95146" y="5.768297"/>
</g>
</svg>
