<?xml version="1.0" encoding="UTF-8"?>
<svg xmlns="http://www.w3.org/2000/svg" xmlns:xlink="http://www.w3.org/1999/xlink" width="11.39pt" height="11pt" viewBox="0 0 11.39 11">
<defs>
<g>
<g id="glyph-0-0">
<path d="M 2.5625 -4.0625 C 2.40625 -4.0625 2.328125 -4.0625 2.265625 -4.0625 C 1.328125 -3.890625 0.515625 -3.15625 0.515625 -2.046875 C 0.515625 -0.921875 1.328125 -0.1875 2.265625 -0.015625 C 2.328125 -0.015625 2.4375 0 2.5625 0 C 2.6875 0 2.796875 -0.015625 2.875 -0.015625 C 3.78125 -0.1875 4.609375 -0.921875 4.609375 -2.03125 C 4.609375 -2.421875 4.484375 -2.828125 4.25 -3.171875 C 4.203125 -3.25 4.15625 -3.296875 4.15625 -3.3125 L 4.140625 -3.328125 C 4.140625 -3.359375 6.390625 -5.578125 6.40625 -5.640625 C 6.421875 -5.65625 6.421875 -5.671875 6.421875 -5.703125 C 6.421875 -5.78125 6.34375 -5.890625 6.234375 -5.890625 C 6.203125 -5.890625 6.1875 -5.875 6.15625 -5.875 C 6.109375 -5.84375 5.890625 -5.625 4.984375 -4.71875 L 3.859375 -3.609375 C 3.53125 -3.875 3.125 -4.0625 2.5625 -4.0625 Z M 4.21875 -2.03125 C 4.21875 -1.59375 4.03125 -1.140625 3.703125 -0.828125 C 3.375 -0.53125 2.96875 -0.390625 2.5625 -0.390625 C 2.09375 -0.390625 1.609375 -0.59375 1.28125 -0.984375 C 1.03125 -1.28125 0.890625 -1.65625 0.890625 -2.03125 C 0.890625 -2.484375 1.078125 -2.90625 1.421875 -3.25 C 1.734375 -3.53125 2.140625 -3.703125 2.5625 -3.703125 C 3.453125 -3.703125 4.21875 -3 4.21875 -2.03125 Z M 4.21875 -2.03125 "/>
</g>
</g>
</defs>
<g fill="rgb(0%, 0%, 0%)" fill-opacity="1">
<use xlink:href="#glyph-0-0" x="1.891234" y="8.829174"/>
</g>
</svg>
