<?xml version="1.0" encoding="UTF-8"?>
<svg xmlns="http://www.w3.org/2000/svg" xmlns:xlink="http://www.w3.org/1999/xlink" width="10.63pt" height="10.18pt" viewBox="0 0 10.63 10.18">
<defs>
<g>
<g id="glyph-0-0">
<path d="M 1.375 -5.671875 C 1.375 -5.5625 1.359375 -5.46875 1.359375 -5.359375 C 1.296875 -4.796875 1.015625 -4.109375 0.421875 -3.9375 C 0.34375 -3.90625 0.25 -3.90625 0.171875 -3.90625 L 0.171875 -3.703125 L 0.953125 -3.703125 L 0.953125 -1.578125 C 0.953125 -1.1875 0.921875 -0.765625 1.171875 -0.421875 C 1.21875 -0.34375 1.265625 -0.28125 1.328125 -0.234375 C 1.703125 0.09375 2.203125 0.09375 2.671875 0.09375 L 3.84375 0.09375 C 4.15625 0.09375 4.484375 0.125 4.796875 0.0625 C 5.140625 -0.015625 5.46875 -0.1875 5.640625 -0.484375 C 5.90625 -0.90625 5.90625 -1.453125 5.625 -1.875 C 5.546875 -2 5.421875 -2.125 5.296875 -2.21875 C 5.15625 -2.296875 5 -2.390625 4.84375 -2.4375 C 4.6875 -2.484375 4.515625 -2.5 4.34375 -2.53125 C 3.984375 -2.609375 3.5 -2.6875 3.34375 -3.09375 C 3.328125 -3.15625 3.3125 -3.21875 3.3125 -3.28125 C 3.328125 -3.625 3.625 -3.859375 3.953125 -3.921875 C 4.34375 -4.015625 4.828125 -3.984375 5.109375 -3.65625 C 5.15625 -3.59375 5.203125 -3.546875 5.234375 -3.46875 C 5.296875 -3.359375 5.34375 -3.21875 5.359375 -3.078125 C 5.359375 -3.03125 5.375 -2.984375 5.375 -2.9375 C 5.375 -2.890625 5.375 -2.859375 5.390625 -2.828125 C 5.40625 -2.78125 5.5 -2.75 5.5625 -2.796875 C 5.59375 -2.8125 5.609375 -2.859375 5.609375 -2.90625 C 5.609375 -3 5.609375 -3.078125 5.609375 -3.171875 L 5.609375 -3.859375 C 5.609375 -3.921875 5.625 -4.046875 5.578125 -4.109375 C 5.5 -4.203125 5.359375 -4.0625 5.296875 -4.015625 C 5.25 -3.96875 5.203125 -3.921875 5.171875 -3.875 L 5.15625 -3.875 C 4.953125 -4.078125 4.625 -4.140625 4.34375 -4.140625 C 3.859375 -4.140625 3.296875 -4.03125 3.03125 -3.578125 C 2.96875 -3.5 2.9375 -3.40625 2.90625 -3.3125 C 2.875 -3.1875 2.859375 -3.046875 2.859375 -2.90625 C 2.890625 -2.796875 2.90625 -2.6875 2.953125 -2.59375 C 3.015625 -2.484375 3.078125 -2.40625 3.15625 -2.328125 C 3.359375 -2.125 3.609375 -1.984375 3.875 -1.921875 C 4.171875 -1.859375 4.484375 -1.828125 4.75 -1.734375 C 5.0625 -1.625 5.34375 -1.359375 5.390625 -1.015625 C 5.390625 -0.9375 5.375 -0.828125 5.359375 -0.734375 C 5.28125 -0.453125 5.0625 -0.28125 4.796875 -0.1875 C 4.515625 -0.125 4.21875 -0.140625 3.953125 -0.140625 L 2.640625 -0.140625 C 2.390625 -0.140625 2.15625 -0.140625 1.953125 -0.28125 C 1.90625 -0.328125 1.859375 -0.359375 1.828125 -0.40625 C 1.5625 -0.6875 1.609375 -1.109375 1.609375 -1.46875 L 1.609375 -3.703125 L 2.546875 -3.703125 L 2.546875 -3.984375 L 1.609375 -3.984375 L 1.609375 -5.671875 Z M 1.375 -5.671875 "/>
</g>
</g>
</defs>
<g fill="rgb(0%, 0%, 0%)" fill-opacity="1">
<use xlink:href="#glyph-0-0" x="2.068987" y="7.577131"/>
</g>
</svg>
