<?xml version="1.0" encoding="UTF-8"?>
<svg xmlns="http://www.w3.org/2000/svg" xmlns:xlink="http://www.w3.org/1999/xlink" width="10.63pt" height="9.46pt" viewBox="0 0 10.63 9.46">
<defs>
<g>
<g id="glyph-0-0">
<path d="M 4.296875 -5.296875 C 4.296875 -5.46875 4.296875 -5.640625 4.109375 -5.640625 C 3.921875 -5.640625 3.921875 -5.46875 3.921875 -5.296875 L 3.921875 -2.4375 C 3.921875 -2.25 3.921875 -2.0625 3.71875 -1.859375 C 3.53125 -1.671875 3.296875 -1.625 3.140625 -1.625 C 3 -1.625 2.75 -1.671875 2.578125 -1.84375 C 2.359375 -2.046875 2.359375 -2.234375 2.359375 -2.4375 L 2.359375 -5.296875 C 2.359375 -5.46875 2.359375 -5.640625 2.171875 -5.640625 C 1.984375 -5.640625 1.984375 -5.46875 1.984375 -5.296875 L 1.984375 -2.40625 C 1.984375 -1.46875 2.78125 -1.25 3.140625 -1.25 C 3.5 -1.25 4.296875 -1.484375 4.296875 -2.40625 Z M 5.75 -5.296875 C 5.75 -5.46875 5.75 -5.640625 5.5625 -5.640625 C 5.375 -5.640625 5.375 -5.46875 5.375 -5.296875 L 5.375 -1.890625 C 5.375 -0.546875 3.953125 -0.171875 3.140625 -0.171875 C 2.609375 -0.171875 2.03125 -0.3125 1.59375 -0.609375 C 0.90625 -1.078125 0.90625 -1.65625 0.90625 -1.890625 L 0.90625 -5.296875 C 0.90625 -5.46875 0.90625 -5.640625 0.71875 -5.640625 C 0.53125 -5.640625 0.53125 -5.46875 0.53125 -5.296875 L 0.53125 -1.859375 C 0.53125 -0.40625 1.984375 0.203125 3.140625 0.203125 C 4.296875 0.203125 5.75 -0.421875 5.75 -1.859375 Z M 5.75 -5.296875 "/>
</g>
</g>
</defs>
<g fill="rgb(0%, 0%, 0%)" fill-opacity="1">
<use xlink:href="#glyph-0-0" x="1.996924" y="7.064227"/>
</g>
</svg>
