<?xml version="1.0" encoding="UTF-8"?>
<svg xmlns="http://www.w3.org/2000/svg" xmlns:xlink="http://www.w3.org/1999/xlink" width="11.73pt" height="11.69pt" viewBox="0 0 11.73 11.69">
<defs>
<g>
<g id="glyph-0-0">
<path d="M 6.546875 -3.140625 C 6.6875 -3.21875 6.734375 -3.28125 6.734375 -3.359375 C 6.734375 -3.484375 6.671875 -3.515625 6.546875 -3.578125 L 1.1875 -6.109375 C 1.0625 -6.171875 1.015625 -6.171875 1 -6.171875 C 0.890625 -6.171875 0.8125 -6.078125 0.8125 -5.984375 C 0.8125 -5.84375 0.890625 -5.828125 1 -5.765625 L 6.078125 -3.359375 L 0.984375 -0.953125 C 0.84375 -0.890625 0.8125 -0.828125 0.8125 -0.75 C 0.8125 -0.640625 0.890625 -0.546875 1 -0.546875 C 1.03125 -0.546875 1.046875 -0.546875 1.171875 -0.625 Z M 6.546875 -1.265625 C 6.6875 -1.328125 6.734375 -1.390625 6.734375 -1.46875 C 6.734375 -1.671875 6.546875 -1.671875 6.484375 -1.671875 L 0.984375 0.921875 C 0.890625 0.96875 0.8125 1.03125 0.8125 1.140625 C 0.8125 1.234375 0.890625 1.328125 1 1.328125 C 1.03125 1.328125 1.046875 1.328125 1.171875 1.265625 Z M 6.546875 -1.265625 "/>
</g>
</g>
</defs>
<g fill="rgb(0%, 0%, 0%)" fill-opacity="1">
<use xlink:href="#glyph-0-0" x="1.961047" y="8.120585"/>
</g>
</svg>
