<?xml version="1.0" encoding="UTF-8"?>
<svg xmlns="http://www.w3.org/2000/svg" xmlns:xlink="http://www.w3.org/1999/xlink" width="12.28pt" height="12.76pt" viewBox="0 0 12.28 12.76">
<defs>
<g>
<g id="glyph-0-0">
<path d="M 3.328125 -3.734375 C 3.328125 -2.65625 2.96875 -1.671875 2.03125 -1.140625 C 1.875 -1.171875 1.59375 -1.171875 1.390625 -1.171875 C 1.015625 -0.84375 0.59375 -0.46875 0.25 -0.109375 L 0.34375 0.03125 C 0.6875 -0.203125 1.09375 -0.515625 1.53125 -0.515625 C 1.765625 -0.515625 2.125 -0.390625 2.46875 -0.1875 C 2.765625 -0.015625 3.203125 0.203125 3.484375 0.203125 C 3.890625 0.203125 4.34375 -0.4375 4.640625 -0.84375 L 4.5625 -1 C 4.359375 -0.765625 4.078125 -0.546875 3.765625 -0.546875 C 3.265625 -0.546875 2.828125 -0.9375 2.3125 -1.078125 L 3.40625 -1.953125 C 3.890625 -2.6875 4.046875 -3.546875 4.0625 -4.40625 C 4.0625 -4.53125 4.046875 -4.6875 4.03125 -4.8125 C 4.40625 -5.328125 5.046875 -5.625 5.109375 -5.65625 C 5.453125 -5.515625 5.71875 -5.234375 5.96875 -4.953125 C 6.1875 -4.3125 6.21875 -3.625 6.21875 -2.953125 C 6.21875 -1.5 6.109375 0.140625 5.1875 1.046875 C 4.8125 1.40625 4.5 1.609375 3.90625 1.609375 C 3.40625 1.609375 2.96875 1.203125 2.875 0.734375 L 2.78125 0.734375 L 2.15625 1.40625 C 2.34375 1.875 2.921875 2.0625 3.40625 2.0625 C 4.46875 2.0625 5.71875 1.125 6.359375 0.15625 C 6.859375 -0.828125 6.96875 -2.0625 6.96875 -3.203125 C 6.96875 -4 6.96875 -4.859375 6.8125 -5.609375 C 6.453125 -5.84375 6.078125 -6.109375 5.8125 -6.453125 C 5.140625 -6.140625 4.53125 -5.609375 4 -5.09375 L 3.953125 -5.046875 C 3.75 -5.71875 3.15625 -6.453125 2.46875 -6.453125 C 1.578125 -6.453125 0.96875 -5.875 0.75 -5.640625 C 0.484375 -5.375 0.265625 -5.09375 0.265625 -4.71875 C 0.265625 -4.21875 0.65625 -3.890625 0.9375 -3.46875 C 1 -3.390625 1.0625 -3.3125 1.0625 -3.21875 C 1.0625 -2.921875 0.75 -2.609375 0.453125 -2.453125 L 0.609375 -2.359375 C 1.15625 -2.640625 1.765625 -3.015625 1.765625 -3.609375 C 1.765625 -4.171875 0.890625 -4.609375 0.890625 -5.1875 C 0.890625 -5.640625 1.21875 -5.859375 1.828125 -5.859375 C 2.78125 -5.859375 3.328125 -4.765625 3.328125 -3.734375 Z M 3.328125 -3.734375 "/>
</g>
</g>
</defs>
<g fill="rgb(0%, 0%, 0%)" fill-opacity="1">
<use xlink:href="#glyph-0-0" x="1.882165" y="8.631935"/>
</g>
</svg>
