<?xml version="1.0" encoding="UTF-8"?>
<svg xmlns="http://www.w3.org/2000/svg" xmlns:xlink="http://www.w3.org/1999/xlink" width="11.73pt" height="12.84pt" viewBox="0 0 11.73 12.84">
<defs>
<g>
<g id="glyph-0-0">
<path d="M 6.125 -6.59375 C 6.203125 -6.71875 6.203125 -6.75 6.203125 -6.78125 C 6.203125 -6.84375 6.15625 -6.96875 6.015625 -6.96875 C 5.90625 -6.96875 5.875 -6.90625 5.796875 -6.78125 L 1.4375 1.71875 C 1.359375 1.859375 1.359375 1.875 1.359375 1.90625 C 1.359375 1.984375 1.421875 2.109375 1.546875 2.109375 C 1.671875 2.109375 1.6875 2.046875 1.765625 1.90625 Z M 6.125 -6.59375 "/>
</g>
<g id="glyph-1-0">
<path d="M 6.6875 -3.1875 C 6.828125 -3.1875 7.015625 -3.1875 7.015625 -3.375 C 7.015625 -3.578125 6.828125 -3.578125 6.703125 -3.578125 L 0.859375 -3.578125 C 0.734375 -3.578125 0.546875 -3.578125 0.546875 -3.375 C 0.546875 -3.1875 0.734375 -3.1875 0.875 -3.1875 Z M 6.703125 -1.296875 C 6.828125 -1.296875 7.015625 -1.296875 7.015625 -1.484375 C 7.015625 -1.6875 6.828125 -1.6875 6.6875 -1.6875 L 0.875 -1.6875 C 0.734375 -1.6875 0.546875 -1.6875 0.546875 -1.484375 C 0.546875 -1.296875 0.734375 -1.296875 0.859375 -1.296875 Z M 6.703125 -1.296875 "/>
</g>
</g>
</defs>
<g fill="rgb(0%, 0%, 0%)" fill-opacity="1">
<use xlink:href="#glyph-0-0" x="1.947688" y="8.776068"/>
</g>
<g fill="rgb(0%, 0%, 0%)" fill-opacity="1">
<use xlink:href="#glyph-1-0" x="1.947688" y="8.776068"/>
</g>
</svg>
