<?xml version="1.0" encoding="UTF-8"?>
<svg xmlns="http://www.w3.org/2000/svg" xmlns:xlink="http://www.w3.org/1999/xlink" width="11.03pt" height="8.27pt" viewBox="0 0 11.03 8.27">
<defs>
<g>
<g id="glyph-0-0">
<path d="M 4.828125 -2.46875 C 4.25 -1.421875 4.15625 -0.640625 4.15625 -0.40625 C 4.15625 -0.03125 4.28125 0.015625 4.421875 0.015625 C 5.234375 0.015625 5.84375 -0.671875 5.84375 -0.984375 C 5.84375 -1.078125 5.765625 -1.09375 5.734375 -1.09375 C 5.65625 -1.09375 5.640625 -1.046875 5.609375 -0.984375 C 5.515625 -0.796875 5.09375 -0.609375 4.484375 -0.609375 C 4.453125 -0.65625 4.4375 -0.703125 4.4375 -0.765625 C 4.4375 -0.921875 4.65625 -1.78125 5.09375 -2.484375 C 5.28125 -2.765625 5.296875 -2.78125 5.578125 -2.96875 C 5.921875 -3.203125 6.4375 -3.546875 6.484375 -3.59375 C 6.484375 -3.609375 6.546875 -3.65625 6.546875 -3.75 C 6.546875 -3.953125 6.34375 -3.984375 6.25 -3.984375 C 6.03125 -3.984375 5.859375 -3.875 5.75 -3.796875 L 2.25 -1.46875 C 2.515625 -1.90625 2.921875 -2.859375 2.921875 -3.546875 C 2.921875 -3.765625 2.921875 -3.953125 2.671875 -3.953125 C 1.84375 -3.953125 1.25 -3.265625 1.25 -2.96875 C 1.25 -2.90625 1.28125 -2.859375 1.359375 -2.859375 C 1.421875 -2.859375 1.453125 -2.90625 1.484375 -2.96875 C 1.5625 -3.125 1.984375 -3.34375 2.609375 -3.34375 C 2.640625 -3.28125 2.640625 -3.203125 2.640625 -3.171875 C 2.640625 -2.6875 2 -1.296875 1.734375 -1.125 C 1.6875 -1.09375 1.6875 -1.09375 1.375 -0.890625 L 0.765625 -0.484375 C 0.609375 -0.375 0.546875 -0.328125 0.546875 -0.1875 C 0.546875 0.03125 0.8125 0.046875 0.828125 0.046875 C 1.046875 0.046875 1.234375 -0.078125 1.34375 -0.140625 Z M 4.828125 -2.46875 "/>
</g>
</g>
</defs>
<g fill="rgb(0%, 0%, 0%)" fill-opacity="1">
<use xlink:href="#glyph-0-0" x="1.832571" y="5.768297"/>
</g>
</svg>
