<?xml version="1.0" encoding="UTF-8"?>
<svg xmlns="http://www.w3.org/2000/svg" xmlns:xlink="http://www.w3.org/1999/xlink" width="10.79pt" height="10.9pt" viewBox="0 0 10.79 10.9">
<defs>
<g>
<g id="glyph-0-0">
<path d="M 6.671875 -3.34375 C 6.671875 -5.171875 5.171875 -6.671875 3.34375 -6.671875 C 1.5 -6.671875 0 -5.171875 0 -3.34375 C 0 -1.5 1.5 0 3.34375 0 C 5.171875 0 6.671875 -1.5 6.671875 -3.34375 Z M 6.28125 -3.34375 C 6.28125 -1.703125 4.96875 -0.390625 3.34375 -0.390625 C 1.703125 -0.390625 0.390625 -1.703125 0.390625 -3.34375 C 0.390625 -4.96875 1.703125 -6.28125 3.34375 -6.28125 C 4.96875 -6.28125 6.28125 -4.96875 6.28125 -3.34375 Z M 5.078125 -4.171875 C 5.078125 -4.703125 4.546875 -5.171875 3.8125 -5.171875 L 1.90625 -5.171875 L 1.90625 -5.015625 L 2.046875 -5.015625 C 2.453125 -5.015625 2.46875 -4.953125 2.46875 -4.75 L 2.46875 -1.921875 C 2.46875 -1.734375 2.453125 -1.671875 2.046875 -1.671875 L 1.90625 -1.671875 L 1.90625 -1.5 L 2.703125 -1.515625 C 2.90625 -1.515625 3.3125 -1.515625 3.5 -1.5 L 3.5 -1.671875 L 3.375 -1.671875 C 2.953125 -1.671875 2.9375 -1.734375 2.9375 -1.921875 L 2.9375 -3.203125 L 3.84375 -3.203125 C 4.5 -3.203125 5.078125 -3.640625 5.078125 -4.171875 Z M 4.515625 -4.171875 C 4.515625 -3.921875 4.515625 -3.34375 3.671875 -3.34375 L 2.9375 -3.34375 L 2.9375 -4.796875 C 2.9375 -4.96875 2.9375 -5.015625 3.1875 -5.015625 L 3.671875 -5.015625 C 4.515625 -5.015625 4.515625 -4.4375 4.515625 -4.171875 Z M 4.515625 -4.171875 "/>
</g>
</g>
</defs>
<g fill="rgb(0%, 0%, 0%)" fill-opacity="1">
<use xlink:href="#glyph-0-0" x="1.954481" y="8.792418"/>
</g>
</svg>
