<?xml version="1.0" encoding="UTF-8"?>
<svg xmlns="http://www.w3.org/2000/svg" xmlns:xlink="http://www.w3.org/1999/xlink" width="11.73pt" height="12.84pt" viewBox="0 0 11.73 12.84">
<defs>
<g>
<g id="glyph-0-0">
<path d="M 6.125 -6.59375 C 6.203125 -6.71875 6.203125 -6.75 6.203125 -6.78125 C 6.203125 -6.84375 6.15625 -6.96875 6.015625 -6.96875 C 5.90625 -6.96875 5.875 -6.90625 5.796875 -6.78125 L 1.4375 1.71875 C 1.359375 1.859375 1.359375 1.875 1.359375 1.90625 C 1.359375 1.984375 1.421875 2.109375 1.546875 2.109375 C 1.671875 2.109375 1.6875 2.046875 1.765625 1.90625 Z M 6.125 -6.59375 "/>
</g>
<g id="glyph-0-1">
<path d="M 7.03125 -4.203125 C 7.03125 -4.421875 6.953125 -4.5 6.890625 -4.5 C 6.859375 -4.5 6.765625 -4.46875 6.75 -4.25 C 6.71875 -3.4375 6.03125 -2.984375 5.40625 -2.984375 C 4.8125 -2.984375 4.34375 -3.3125 3.84375 -3.703125 C 3.328125 -4.125 2.8125 -4.515625 2.15625 -4.515625 C 1.203125 -4.515625 0.53125 -3.65625 0.53125 -2.75 C 0.53125 -2.453125 0.65625 -2.4375 0.671875 -2.4375 C 0.78125 -2.4375 0.8125 -2.640625 0.8125 -2.671875 C 0.859375 -3.625 1.640625 -3.96875 2.15625 -3.96875 C 2.75 -3.96875 3.21875 -3.625 3.71875 -3.234375 C 4.234375 -2.828125 4.75 -2.4375 5.40625 -2.4375 C 6.359375 -2.4375 7.03125 -3.296875 7.03125 -4.203125 Z M 0.890625 -0.734375 C 0.734375 -0.734375 0.53125 -0.734375 0.53125 -0.546875 C 0.53125 -0.34375 0.703125 -0.34375 0.875 -0.34375 L 6.6875 -0.34375 C 6.859375 -0.34375 7.03125 -0.34375 7.03125 -0.546875 C 7.03125 -0.734375 6.84375 -0.734375 6.671875 -0.734375 Z M 0.890625 -0.734375 "/>
</g>
</g>
</defs>
<g fill="rgb(0%, 0%, 0%)" fill-opacity="1">
<use xlink:href="#glyph-0-0" x="1.947688" y="8.776068"/>
<use xlink:href="#glyph-0-1" x="1.947688" y="8.776068"/>
</g>
</svg>
