<?xml version="1.0" encoding="UTF-8"?>
<svg xmlns="http://www.w3.org/2000/svg" xmlns:xlink="http://www.w3.org/1999/xlink" width="11.8pt" height="10.79pt" viewBox="0 0 11.8 10.79">
<defs>
<g>
<g id="glyph-0-0">
<path d="M 5.796875 -0.625 C 5.90625 -0.421875 6.078125 -0.25 6.25 -0.109375 C 6.3125 -0.0625 6.421875 0.046875 6.484375 -0.046875 C 6.515625 -0.09375 6.5 -0.171875 6.5 -0.21875 L 6.5 -1.8125 C 6.5 -1.953125 6.46875 -2.171875 6.578125 -2.28125 C 6.640625 -2.328125 6.703125 -2.34375 6.78125 -2.359375 C 6.921875 -2.375 7.046875 -2.375 7.171875 -2.375 L 7.171875 -2.671875 L 4.421875 -2.671875 L 4.421875 -2.375 C 4.671875 -2.375 4.90625 -2.375 5.171875 -2.359375 C 5.296875 -2.34375 5.4375 -2.328125 5.53125 -2.25 C 5.640625 -2.15625 5.640625 -2.03125 5.640625 -1.90625 L 5.640625 -1.625 C 5.640625 -1.421875 5.671875 -1.1875 5.609375 -0.96875 C 5.515625 -0.609375 5.171875 -0.34375 4.828125 -0.21875 C 4.328125 -0.046875 3.765625 -0.0625 3.265625 -0.25 C 3.140625 -0.296875 3.03125 -0.359375 2.9375 -0.40625 C 2.890625 -0.4375 2.828125 -0.453125 2.8125 -0.5 C 2.796875 -0.53125 2.796875 -0.578125 2.796875 -0.609375 L 2.796875 -6.078125 C 2.796875 -6.140625 2.796875 -6.203125 2.84375 -6.234375 C 2.890625 -6.28125 2.953125 -6.3125 3.015625 -6.34375 C 3.15625 -6.40625 3.3125 -6.46875 3.453125 -6.515625 C 3.6875 -6.578125 3.921875 -6.609375 4.15625 -6.59375 C 4.890625 -6.546875 5.5 -6.046875 5.84375 -5.40625 C 5.984375 -5.171875 6.078125 -4.890625 6.140625 -4.625 C 6.15625 -4.515625 6.171875 -4.4375 6.1875 -4.34375 C 6.1875 -4.28125 6.1875 -4.21875 6.21875 -4.171875 C 6.25 -4.109375 6.375 -4.09375 6.4375 -4.125 C 6.515625 -4.15625 6.5 -4.234375 6.5 -4.3125 L 6.5 -6.734375 C 6.5 -6.78125 6.5 -6.84375 6.46875 -6.875 C 6.359375 -6.953125 6.265625 -6.8125 6.21875 -6.75 C 6.140625 -6.625 6.046875 -6.484375 5.953125 -6.359375 C 5.890625 -6.265625 5.8125 -6.15625 5.75 -6.0625 C 5.6875 -6.109375 5.625 -6.1875 5.5625 -6.234375 C 5.46875 -6.328125 5.375 -6.421875 5.265625 -6.484375 C 4.828125 -6.796875 4.28125 -6.9375 3.75 -6.890625 C 3.09375 -6.84375 2.484375 -6.625 1.953125 -6.21875 C 1.015625 -5.53125 0.484375 -4.359375 0.53125 -3.1875 C 0.5625 -2.671875 0.6875 -2.15625 0.921875 -1.6875 C 1.078125 -1.40625 1.25 -1.140625 1.46875 -0.90625 C 1.65625 -0.703125 1.859375 -0.53125 2.09375 -0.375 C 2.703125 0.046875 3.453125 0.25 4.1875 0.203125 C 4.640625 0.171875 5.109375 0.03125 5.484375 -0.265625 C 5.609375 -0.359375 5.703125 -0.484375 5.796875 -0.625 Z M 2.5 -5.984375 L 2.5 -0.71875 C 2.390625 -0.796875 2.296875 -0.90625 2.21875 -1 C 2 -1.265625 1.84375 -1.578125 1.734375 -1.90625 C 1.625 -2.28125 1.578125 -2.65625 1.546875 -3.046875 C 1.515625 -3.6875 1.578125 -4.359375 1.796875 -4.96875 C 1.90625 -5.25 2.046875 -5.515625 2.25 -5.734375 C 2.328125 -5.828125 2.40625 -5.921875 2.5 -5.984375 Z M 2.5 -5.984375 "/>
</g>
</g>
</defs>
<g fill="rgb(0%, 0%, 0%)" fill-opacity="1">
<use xlink:href="#glyph-0-0" x="1.969026" y="8.629518"/>
</g>
</svg>
