<?xml version="1.0" encoding="UTF-8"?>
<svg xmlns="http://www.w3.org/2000/svg" xmlns:xlink="http://www.w3.org/1999/xlink" width="8.41pt" height="9.1pt" viewBox="0 0 8.41 9.1">
<defs>
<g>
<g id="glyph-0-0">
<path d="M 3.765625 -1.078125 C 3.765625 -1.171875 3.671875 -1.171875 3.640625 -1.171875 C 3.5625 -1.171875 3.546875 -1.140625 3.53125 -1.078125 C 3.265625 -0.234375 2.671875 -0.125 2.34375 -0.125 C 2.1875 -0.125 2.03125 -0.15625 1.859375 -0.25 L 2.640625 -3.796875 C 2.84375 -3.765625 3.078125 -3.671875 3.25 -3.5 C 2.875 -3.46875 2.828125 -3.203125 2.828125 -3.078125 C 2.828125 -2.84375 2.984375 -2.671875 3.25 -2.671875 C 3.484375 -2.671875 3.65625 -2.8125 3.65625 -3.09375 C 3.65625 -3.578125 3.21875 -3.90625 2.6875 -4.015625 L 2.703125 -4.140625 C 2.734375 -4.234375 2.671875 -4.3125 2.578125 -4.3125 C 2.515625 -4.3125 2.453125 -4.265625 2.453125 -4.203125 L 2.40625 -4.046875 C 2.359375 -4.0625 2.3125 -4.0625 2.28125 -4.0625 C 1.140625 -4.0625 0.3125 -3.078125 0.3125 -1.953125 C 0.3125 -1.078125 0.828125 -0.34375 1.546875 -0.046875 L 1.484375 0.25 C 1.453125 0.328125 1.515625 0.40625 1.609375 0.40625 C 1.671875 0.40625 1.734375 0.359375 1.734375 0.296875 L 1.796875 0.046875 C 1.953125 0.078125 2.109375 0.09375 2.25 0.09375 C 3.46875 0.09375 3.765625 -0.984375 3.765625 -1.078125 Z M 2.359375 -3.828125 L 1.625 -0.40625 C 1.3125 -0.671875 1.0625 -1.15625 1.0625 -1.96875 C 1.0625 -3.453125 1.796875 -3.828125 2.28125 -3.828125 Z M 2.359375 -3.828125 "/>
</g>
</g>
</defs>
<g fill="rgb(0%, 0%, 0%)" fill-opacity="1">
<use xlink:href="#glyph-0-0" x="1.923193" y="6.059826"/>
</g>
</svg>
