<?xml version="1.0" encoding="UTF-8"?>
<svg xmlns="http://www.w3.org/2000/svg" xmlns:xlink="http://www.w3.org/1999/xlink" width="13.95pt" height="8.69pt" viewBox="0 0 13.95 8.69">
<defs>
<g>
<g id="glyph-0-0">
<path d="M 2.984375 -1.328125 L 1.109375 -2.40625 L 2.984375 -3.484375 Z M 0.625 -2.5625 C 0.609375 -2.5625 0.578125 -2.53125 0.5625 -2.5 C 0.53125 -2.46875 0.53125 -2.4375 0.53125 -2.40625 C 0.53125 -2.34375 0.5625 -2.265625 0.625 -2.25 L 3.078125 -0.828125 C 3.109375 -0.8125 3.140625 -0.796875 3.171875 -0.796875 C 3.28125 -0.796875 3.375 -0.890625 3.375 -0.984375 L 3.375 -2.21875 L 6.234375 -2.21875 L 6.234375 -0.984375 C 6.234375 -0.890625 6.328125 -0.796875 6.421875 -0.796875 C 6.46875 -0.796875 6.5 -0.8125 6.53125 -0.828125 L 8.984375 -2.25 C 9.03125 -2.265625 9.0625 -2.34375 9.0625 -2.40625 C 9.0625 -2.4375 9.0625 -2.46875 9.046875 -2.5 C 9.03125 -2.53125 9 -2.5625 8.984375 -2.5625 L 6.53125 -3.984375 C 6.5 -4 6.46875 -4.015625 6.421875 -4.015625 C 6.328125 -4.015625 6.234375 -3.921875 6.234375 -3.828125 L 6.234375 -2.59375 L 3.375 -2.59375 L 3.375 -3.828125 C 3.375 -3.921875 3.28125 -4.015625 3.171875 -4.015625 C 3.140625 -4.015625 3.109375 -4 3.078125 -3.984375 Z M 6.625 -1.328125 L 6.625 -3.484375 L 8.484375 -2.40625 Z M 6.625 -1.328125 "/>
</g>
</g>
</defs>
<g fill="rgb(0%, 0%, 0%)" fill-opacity="1">
<use xlink:href="#glyph-0-0" x="2.14" y="6.466779"/>
</g>
</svg>
