<?xml version="1.0" encoding="UTF-8"?>
<svg xmlns="http://www.w3.org/2000/svg" xmlns:xlink="http://www.w3.org/1999/xlink" width="11.73pt" height="10.63pt" viewBox="0 0 11.73 10.63">
<defs>
<g>
<g id="glyph-0-0">
<path d="M 6.953125 -2.40625 C 6.953125 -4.171875 5.5 -5.609375 3.75 -5.609375 C 1.953125 -5.609375 0.53125 -4.15625 0.53125 -2.40625 C 0.53125 -0.640625 1.96875 0.796875 3.734375 0.796875 C 5.53125 0.796875 6.953125 -0.65625 6.953125 -2.40625 Z M 1.828125 -4.46875 C 1.8125 -4.5 1.734375 -4.5625 1.734375 -4.578125 C 1.734375 -4.625 2.515625 -5.375 3.734375 -5.375 C 4.078125 -5.375 4.953125 -5.328125 5.75 -4.578125 L 3.75 -2.5625 Z M 1.546875 -0.390625 C 0.96875 -1.046875 0.765625 -1.796875 0.765625 -2.40625 C 0.765625 -3.140625 1.046875 -3.84375 1.546875 -4.421875 L 3.5625 -2.40625 Z M 5.921875 -4.421875 C 6.375 -3.921875 6.703125 -3.203125 6.703125 -2.40625 C 6.703125 -1.671875 6.421875 -0.96875 5.921875 -0.390625 L 3.921875 -2.40625 Z M 5.65625 -0.34375 C 5.671875 -0.3125 5.734375 -0.25 5.734375 -0.234375 C 5.734375 -0.1875 4.953125 0.5625 3.75 0.5625 C 3.40625 0.5625 2.515625 0.515625 1.734375 -0.234375 L 3.734375 -2.25 Z M 5.65625 -0.34375 "/>
</g>
</g>
</defs>
<g fill="rgb(0%, 0%, 0%)" fill-opacity="1">
<use xlink:href="#glyph-0-0" x="1.992317" y="7.544643"/>
</g>
</svg>
